<svg width="24" height="24" viewBox="0 0 24 24" fill="none" xmlns="http://www.w3.org/2000/svg">
<path fill-rule="evenodd" clip-rule="evenodd" d="M17.3654 4.85682C16.0863 3.74364 14.1469 3.8782 13.0337 5.15735L9.75252 8.92783C10.3496 9.94111 10.8924 10.6689 11.5106 11.2486C12.4597 10.4688 13.6755 10.0001 15 10.0001C15.6003 10.0001 16.1789 10.0964 16.7207 10.2747L17.666 9.18852C18.7791 7.90936 18.6446 5.96999 17.3654 4.85682ZM4.46666 13.4785L12.2794 4.50089C13.7551 2.80511 16.3261 2.62673 18.0219 4.10247C19.7177 5.5782 19.8961 8.14921 18.4203 9.84499L17.0153 11.4595L16.6848 11.3259C16.1651 11.1159 15.5967 11.0001 15 11.0001C13.7572 11.0001 12.6329 11.5032 11.818 12.3181C11.0032 13.133 10.5 14.2573 10.5 15.5001C10.5 16.3184 10.718 17.0843 11.0988 17.7445L11.2769 18.0535L11.0428 18.3226C10.2845 19.194 9.28857 19.8798 8.19764 20.1182C7.08606 20.3611 5.90908 20.1296 4.86508 19.2211C3.16931 17.7453 2.99093 15.1743 4.46666 13.4785Z" fill="#22202A"/>
<path fill-rule="evenodd" clip-rule="evenodd" d="M16.4445 5.61062C16.5135 5.34324 16.3526 5.07055 16.0852 5.00157C14.4962 4.59163 13.5268 5.70696 13.1402 6.15182C13.1343 6.15862 13.1285 6.16527 13.1228 6.17174C12.9416 6.38005 12.9635 6.69588 13.1718 6.87716C13.3801 7.05843 13.6959 7.03652 13.8772 6.82821C14.284 6.36078 14.8719 5.7213 15.8354 5.96987C16.1028 6.03885 16.3755 5.87801 16.4445 5.61062Z" fill="#22202A"/>
<path fill-rule="evenodd" clip-rule="evenodd" d="M15 11C12.5147 11 10.5 13.0147 10.5 15.5C10.5 17.9853 12.5147 20 15 20C17.4853 20 19.5 17.9853 19.5 15.5C19.5 13.0147 17.4853 11 15 11ZM9.5 15.5C9.5 12.4624 11.9624 10 15 10C18.0376 10 20.5 12.4624 20.5 15.5C20.5 18.5376 18.0376 21 15 21C11.9624 21 9.5 18.5376 9.5 15.5Z" fill="#22202A"/>
<path fill-rule="evenodd" clip-rule="evenodd" d="M11.1363 16.5352C11.0648 16.2685 11.2231 15.9943 11.4899 15.9228L18.2513 14.1111C18.5181 14.0396 18.7922 14.1979 18.8637 14.4647C18.9352 14.7314 18.7769 15.0056 18.5102 15.077L11.7487 16.8888C11.4819 16.9602 11.2078 16.8019 11.1363 16.5352Z" fill="#22202A"/>
</svg>
